<svg xmlns="http://www.w3.org/2000/svg" viewBox="0 0 111.29 167.76"><defs><style>.cls-1{fill:#fff;}.cls-2{fill:#00d8ff;}</style></defs><title>Asset 1</title><g id="Layer_2" data-name="Layer 2"><g id="Layer_1-2" data-name="Layer 1"><path class="cls-1" d="M4.61,54.7c1,7.6,1.69,15-1,22.43a2.46,2.46,0,0,0,.26,2.06C5.09,80.65,6.53,81.94,8,83.43a23.68,23.68,0,0,0,1.21-2.84c.4-1.43,1.17-1.62,2.53-1.31,6.44,1.47,12.89,2.9,19.37,4.2,4.79,1,9.59,2.16,14.44,2.45,3.35.2,6.72.24,10.08.22s6.73,0,10.08-.22c4.85-.29,9.65-1.49,14.44-2.45,6.48-1.31,12.93-2.74,19.37-4.2,1.36-.31,2.13-.12,2.53,1.31a23.68,23.68,0,0,0,1.21,2.84c1.48-1.48,2.92-2.78,4.15-4.24a2.46,2.46,0,0,0,.26-2.06c-2.69-7.39-2-14.82-1-22.43.87-6.64.87-13.4,1.08-20.11.13-4.21-.09-8.43-.1-12.65a5.14,5.14,0,0,0-1.79-4.06c-2.58-2.33-4.92-4.94-7.62-7.11a34.08,34.08,0,0,0-7.81-5.1c-4.27-1.81-8.81-3-13.51-4.48L72.42,0c-.35,2.07-.7,4-1.07,6.08a36.75,36.75,0,0,1-1.9,6,4.09,4.09,0,0,1-4.21,2.85c-3.2,0-6.4,0-9.6,0s-6.4,0-9.6,0a4.09,4.09,0,0,1-4.21-2.85,36.75,36.75,0,0,1-1.9-6c-.37-2.06-.72-4-1.07-6.08l-4.5,1.18c-4.7,1.52-9.25,2.67-13.51,4.48A34.08,34.08,0,0,0,13,10.76c-2.7,2.18-5,4.78-7.62,7.11a5.14,5.14,0,0,0-1.79,4.06c0,4.22-.23,8.44-.1,12.65C3.73,41.3,3.74,48.06,4.61,54.7Z"/><path class="cls-1" d="M111,91.62c-.81-3.48-1.43-7-2.14-10.5l-.81-.5c-2.87,3.08-5.7,6.21-8.66,9.21a7.46,7.46,0,0,1-2.87,1.67c-7.51,2.55-15.17,2-22.83.93-1.93-.27-3.78-.76-4.44-3.11a2.53,2.53,0,0,0-2-1.2q-5.81-.07-11.62-.07T44,88.12a2.53,2.53,0,0,0-2,1.2c-.66,2.36-2.52,2.84-4.44,3.11-7.66,1.08-15.32,1.62-22.83-.93a7.46,7.46,0,0,1-2.87-1.67c-3-3-5.78-6.13-8.66-9.21l-.81.5c-.7,3.5-1.33,7-2.14,10.5a12.62,12.62,0,0,0,1,8.14,23.3,23.3,0,0,0,1.77,3.31c4.67,7.22,9.34,14.45,14.08,21.62,3.26,4.94,5.71,10.22,5.94,16.16.2,5.06,3.32,7.51,7.26,9.83a15.5,15.5,0,0,0,2.11-3.41c.89-3,2.32-3.33,5-3.32q9.09,0,18.17.06T73.81,144c2.66,0,4.09.34,5,3.32a15.5,15.5,0,0,0,2.11,3.41c3.94-2.32,7.07-4.77,7.26-9.83.23-5.94,2.69-11.23,5.94-16.16,4.74-7.18,9.41-14.4,14.08-21.62A23.3,23.3,0,0,0,110,99.76,12.62,12.62,0,0,0,111,91.62Z"/><path class="cls-1" d="M89.45,148,81.21,156c-.93-1.11-1.88-2.14-2.71-3.25-2.57-3.41-5.85-4.79-10.2-4.65s-8.43.21-12.65.21-8.44-.07-12.65-.21-7.64,1.24-10.2,4.65c-.84,1.11-1.78,2.14-2.71,3.25L21.83,148c-.81,3.51-1.66,6.93-2.35,10.39a2.58,2.58,0,0,0,.86,1.84c2.23,2.2,4.65,4.21,6.79,6.5,1.37,1.47,2.29,1.17,3.66.08,8-6.31,4.64-5.14,15.1-6.15a5,5,0,0,0,2.55-1.08,12.64,12.64,0,0,1,14.38,0,5,5,0,0,0,2.55,1.08c10.46,1,7.09-.16,15.1,6.15,1.37,1.08,2.29,1.38,3.66-.08,2.13-2.29,4.56-4.3,6.79-6.5a2.58,2.58,0,0,0,.86-1.84C91.12,155,90.27,151.54,89.45,148Z"/><circle class="cls-2" cx="55.64" cy="49.45" r="4.84"/><path class="cls-2" d="M55.64,60.53a54.91,54.91,0,0,1-17.18-2.32,21.85,21.85,0,0,1-7.07-3.79c-1.85-1.59-2.83-3.31-2.83-5,0-3.2,3.51-6.33,9.4-8.38a55.62,55.62,0,0,1,17.68-2.61A55.47,55.47,0,0,1,73.09,41a22,22,0,0,1,6.84,3.61c1.82,1.52,2.79,3.19,2.79,4.82,0,3.32-3.93,6.69-10.25,8.78A55.72,55.72,0,0,1,55.64,60.53Zm0-19.76a54.06,54.06,0,0,0-16.92,2.48c-3.9,1.36-7.84,3.81-7.84,6.2,0,1,.72,2.1,2,3.22A19.56,19.56,0,0,0,39.21,56a52.63,52.63,0,0,0,16.43,2.2A53.39,53.39,0,0,0,71.75,56c6-2,8.66-4.8,8.66-6.59,0-.91-.69-2-2-3a19.72,19.72,0,0,0-6.12-3.2A53.12,53.12,0,0,0,55.64,40.77Z"/><path class="cls-2" d="M44.66,73.57a5.11,5.11,0,0,1-2.58-.63c-2.77-1.6-3.73-6.21-2.57-12.33A55.62,55.62,0,0,1,46.08,44,55.47,55.47,0,0,1,57,30.14,22,22,0,0,1,63.56,26c2.23-.82,4.15-.82,5.57,0C72,27.67,73,32.76,71.62,39.28A55.72,55.72,0,0,1,65.21,55,54.91,54.91,0,0,1,54.61,68.73,21.85,21.85,0,0,1,47.8,73,9.53,9.53,0,0,1,44.66,73.57Zm22-45.85a6.82,6.82,0,0,0-2.29.47,19.72,19.72,0,0,0-5.83,3.7A53.12,53.12,0,0,0,48.09,45.14h0A54.06,54.06,0,0,0,41.78,61c-.77,4.06-.62,8.7,1.45,9.89,1.55.9,5.3,0,9.86-3.94A52.63,52.63,0,0,0,63.2,53.85a53.39,53.39,0,0,0,6.15-15,20.76,20.76,0,0,0,.37-7.36C69.44,29.72,68.81,28.5,68,28A2.63,2.63,0,0,0,66.66,27.72Z"/><path class="cls-2" d="M66.62,73.59c-2.62,0-6-1.59-9.42-4.57A55.63,55.63,0,0,1,46.09,55h0a55.47,55.47,0,0,1-6.53-16.39,22,22,0,0,1-.3-7.73c.4-2.34,1.36-4,2.78-4.83,2.88-1.67,7.76,0,12.74,4.47A55.71,55.71,0,0,1,65.2,44a54.91,54.91,0,0,1,6.6,16,21.85,21.85,0,0,1,.27,8c-.44,2.4-1.44,4.11-2.89,4.94A5,5,0,0,1,66.62,73.59ZM48.09,53.87a54.07,54.07,0,0,0,10.62,13.4C61.85,70,65.94,72.15,68,71c1.55-.9,2.69-4.57,1.51-10.51a52.64,52.64,0,0,0-6.33-15.32,53.39,53.39,0,0,0-10-12.84,20.76,20.76,0,0,0-6.19-4c-1.64-.61-3-.68-3.85-.2s-1.38,1.6-1.65,3.22a19.72,19.72,0,0,0,.3,6.9,53.12,53.12,0,0,0,6.26,15.67Z"/></g></g></svg>